<svg width="30" height="26" viewBox="0 0 30 26" fill="none" xmlns="http://www.w3.org/2000/svg">
<path d="M2.30769 22.3098L6.40154 19.4087H25.3846C25.9967 19.4087 26.5836 19.1934 27.0164 18.8103C27.4492 18.4271 27.6923 17.9075 27.6923 17.3657V4.08604C27.6923 3.54419 27.4492 3.02454 27.0164 2.6414C26.5836 2.25826 25.9967 2.04302 25.3846 2.04302H4.61538C4.00335 2.04302 3.41638 2.25826 2.9836 2.6414C2.55082 3.02454 2.30769 3.54419 2.30769 4.08604V22.3098ZM7.21154 21.4517L1.87385 25.2313C1.70418 25.3512 1.49974 25.4263 1.28401 25.448C1.06827 25.4697 0.850005 25.4371 0.65429 25.3538C0.458575 25.2706 0.293353 25.1402 0.177612 24.9776C0.0618714 24.8149 0.000309076 24.6267 0 24.4345V4.08604C0 3.00235 0.486262 1.96305 1.35181 1.19677C2.21737 0.430492 3.39131 0 4.61538 0H25.3846C26.6087 0 27.7826 0.430492 28.6482 1.19677C29.5137 1.96305 30 3.00235 30 4.08604V17.3657C30 18.4493 29.5137 19.4886 28.6482 20.2549C27.7826 21.0212 26.6087 21.4517 25.3846 21.4517H7.21154Z" fill="#DDDDDD"/>
<path d="M9.23077 12.2581H20.7692C21.5385 12.2581 21.9231 12.5986 21.9231 13.2796C21.9231 13.9606 21.5385 14.3011 20.7692 14.3011H9.23077C8.46154 14.3011 8.07692 13.9606 8.07692 13.2796C8.07692 12.5986 8.46154 12.2581 9.23077 12.2581ZM9.23077 6.12905H20.7692C21.5385 6.12905 21.9231 6.46956 21.9231 7.15056C21.9231 7.83157 21.5385 8.17207 20.7692 8.17207H9.23077C8.46154 8.17207 8.07692 7.83157 8.07692 7.15056C8.07692 6.46956 8.46154 6.12905 9.23077 6.12905Z" fill="#DDDDDD"/>
</svg>
