<svg width="35" height="35" viewBox="0 0 35 35" fill="none" xmlns="http://www.w3.org/2000/svg">
<path d="M15.3854 3.6925C15.9772 3.19378 16.7261 2.92026 17.5 2.92026C18.2739 2.92026 19.0228 3.19378 19.6146 3.6925L29.4583 11.9933C30.1977 12.6175 30.625 13.5348 30.625 14.5017V28.7977C30.625 29.4746 30.3561 30.1237 29.8775 30.6023C29.3989 31.0809 28.7498 31.3498 28.0729 31.3498H22.9688C22.2919 31.3498 21.6428 31.0809 21.1642 30.6023C20.6855 30.1237 20.4167 29.4746 20.4167 28.7977V20.7769C20.4167 20.6802 20.3783 20.5874 20.3099 20.5191C20.2415 20.4507 20.1488 20.4123 20.0521 20.4123H14.9479C14.8512 20.4123 14.7585 20.4507 14.6901 20.5191C14.6217 20.5874 14.5833 20.6802 14.5833 20.7769V28.7977C14.5833 29.4746 14.3145 30.1237 13.8358 30.6023C13.3572 31.0809 12.7081 31.3498 12.0312 31.3498H6.92708C6.59194 31.3498 6.26008 31.2838 5.95044 31.1555C5.64081 31.0273 5.35947 30.8393 5.12249 30.6023C4.88551 30.3653 4.69752 30.084 4.56927 29.7743C4.44101 29.4647 4.375 29.1328 4.375 28.7977V14.5017C4.375 13.5348 4.80229 12.6175 5.54167 11.9933L15.3854 3.6925ZM18.2044 5.3652C18.0072 5.19922 17.7577 5.1082 17.5 5.1082C17.2423 5.1082 16.9928 5.19922 16.7956 5.3652L6.95188 13.6646C6.83006 13.7671 6.7321 13.895 6.66485 14.0394C6.59759 14.1837 6.56266 14.341 6.5625 14.5002V28.7962C6.5625 28.9975 6.72583 29.1608 6.92708 29.1608H12.0312C12.1279 29.1608 12.2207 29.1224 12.289 29.054C12.3574 28.9857 12.3958 28.8929 12.3958 28.7962V20.7754C12.3958 19.3652 13.5392 18.2233 14.9479 18.2233H20.0521C21.4608 18.2233 22.6042 19.3652 22.6042 20.7754V28.7962C22.6042 28.9975 22.7675 29.1608 22.9688 29.1608H28.0729C28.1696 29.1608 28.2623 29.1224 28.3307 29.054C28.3991 28.9857 28.4375 28.8929 28.4375 28.7962V14.5017C28.4373 14.3424 28.4024 14.1852 28.3352 14.0408C28.2679 13.8965 28.1699 13.7686 28.0481 13.666L18.2044 5.3652Z" fill="#DDDDDD"/>
</svg>
