<svg width="32" height="32" viewBox="0 0 32 32" fill="none" xmlns="http://www.w3.org/2000/svg">
<path d="M16 15.1111C17.2306 15.1111 18.4336 14.7462 19.4569 14.0625C20.4801 13.3788 21.2776 12.407 21.7486 11.27C22.2195 10.1331 22.3427 8.88198 22.1027 7.67499C21.8626 6.46799 21.27 5.3593 20.3998 4.48911C19.5296 3.61891 18.4209 3.0263 17.2139 2.78622C16.0069 2.54613 14.7558 2.66935 13.6189 3.1403C12.4819 3.61124 11.5101 4.40876 10.8264 5.432C10.1427 6.45524 9.77777 7.65824 9.77777 8.88888C9.77777 10.5391 10.4333 12.1218 11.6002 13.2887C12.7671 14.4555 14.3498 15.1111 16 15.1111ZM16 4.44444C16.879 4.44444 17.7383 4.7051 18.4692 5.19346C19.2001 5.68182 19.7697 6.37595 20.1061 7.18807C20.4425 8.00018 20.5305 8.89381 20.359 9.75595C20.1875 10.6181 19.7643 11.41 19.1427 12.0316C18.5211 12.6531 17.7292 13.0764 16.8671 13.2479C16.0049 13.4194 15.1113 13.3314 14.2992 12.995C13.4871 12.6586 12.7929 12.089 12.3046 11.3581C11.8162 10.6272 11.5555 9.76791 11.5555 8.88888C11.5555 7.71014 12.0238 6.57968 12.8573 5.74618C13.6908 4.91269 14.8213 4.44444 16 4.44444Z" fill="#DDDDDD"/>
<path d="M27.0844 21.6622C25.6589 20.1556 23.9411 18.9555 22.036 18.1353C20.1309 17.3151 18.0786 16.8921 16.0044 16.8921C13.9303 16.8921 11.8779 17.3151 9.97285 18.1353C8.06776 18.9555 6.34995 20.1556 4.92444 21.6622C4.61539 21.9923 4.44374 22.4278 4.44444 22.88V27.5555C4.44444 28.027 4.63175 28.4792 4.96514 28.8126C5.29854 29.146 5.75073 29.3333 6.22222 29.3333H25.7778C26.2493 29.3333 26.7015 29.146 27.0349 28.8126C27.3683 28.4792 27.5556 28.027 27.5556 27.5555V22.88C27.5587 22.429 27.3903 21.9937 27.0844 21.6622ZM25.7778 27.5555H6.22222V22.8711C7.48198 21.5446 8.99848 20.4883 10.6794 19.7665C12.3604 19.0446 14.1706 18.6724 16 18.6724C17.8294 18.6724 19.6396 19.0446 21.3206 19.7665C23.0015 20.4883 24.518 21.5446 25.7778 22.8711V27.5555Z" fill="#DDDDDD"/>
</svg>
