<svg width="25" height="25" viewBox="0 0 25 25" fill="none" xmlns="http://www.w3.org/2000/svg">
<path d="M13.1579 5.92105C13.1579 5.14349 13.311 4.37354 13.6086 3.65516C13.9062 2.93679 14.3423 2.28406 14.8921 1.73424C15.442 1.18442 16.0947 0.748274 16.8131 0.450713C17.5314 0.153152 18.3014 0 19.0789 0C19.8565 0 20.6265 0.153152 21.3448 0.450713C22.0632 0.748274 22.7159 1.18442 23.2658 1.73424C23.8156 2.28406 24.2517 2.93679 24.5493 3.65516C24.8468 4.37354 25 5.14349 25 5.92105C25 7.49141 24.3762 8.99745 23.2658 10.1079C22.1554 11.2183 20.6493 11.8421 19.0789 11.8421C17.5086 11.8421 16.0025 11.2183 14.8921 10.1079C13.7817 8.99745 13.1579 7.49141 13.1579 5.92105ZM0 5.92105C0 4.35069 0.623824 2.84465 1.73424 1.73424C2.84465 0.623823 4.35069 0 5.92105 0C7.49141 0 8.99745 0.623823 10.1079 1.73424C11.2183 2.84465 11.8421 4.35069 11.8421 5.92105C11.8421 7.49141 11.2183 8.99745 10.1079 10.1079C8.99745 11.2183 7.49141 11.8421 5.92105 11.8421C4.35069 11.8421 2.84465 11.2183 1.73424 10.1079C0.623824 8.99745 0 7.49141 0 5.92105ZM13.1579 19.0789C13.1579 18.3014 13.311 17.5314 13.6086 16.8131C13.9062 16.0947 14.3423 15.442 14.8921 14.8921C15.442 14.3423 16.0947 13.9062 16.8131 13.6086C17.5314 13.311 18.3014 13.1579 19.0789 13.1579C19.8565 13.1579 20.6265 13.311 21.3448 13.6086C22.0632 13.9062 22.7159 14.3423 23.2658 14.8921C23.8156 15.442 24.2517 16.0947 24.5493 16.8131C24.8468 17.5314 25 18.3014 25 19.0789C25 20.6493 24.3762 22.1553 23.2658 23.2658C22.1554 24.3762 20.6493 25 19.0789 25C17.5086 25 16.0025 24.3762 14.8921 23.2658C13.7817 22.1553 13.1579 20.6493 13.1579 19.0789ZM0 19.0789C0 17.5086 0.623824 16.0025 1.73424 14.8921C2.84465 13.7817 4.35069 13.1579 5.92105 13.1579C7.49141 13.1579 8.99745 13.7817 10.1079 14.8921C11.2183 16.0025 11.8421 17.5086 11.8421 19.0789C11.8421 20.6493 11.2183 22.1553 10.1079 23.2658C8.99745 24.3762 7.49141 25 5.92105 25C4.35069 25 2.84465 24.3762 1.73424 23.2658C0.623824 22.1553 0 20.6493 0 19.0789Z" fill="#F8F8F8"/>
</svg>
